<mxfile host="app.diagrams.net" modified="2023-11-03T21:27:03.796Z" agent="Mozilla/5.0 (Windows NT 10.0; Win64; x64) AppleWebKit/537.36 (KHTML, like Gecko) Chrome/119.0.0.0 Safari/537.36" etag="xvxoZeNkV_9ZZcSLwcHR" version="22.0.8" type="google">
  <diagram id="C5RBs43oDa-KdzZeNtuy" name="Page-1">
    <mxGraphModel grid="1" page="1" gridSize="10" guides="1" tooltips="1" connect="1" arrows="1" fold="1" pageScale="1" pageWidth="827" pageHeight="1169" math="0" shadow="0">
      <root>
        <mxCell id="WIyWlLk6GJQsqaUBKTNV-0" />
        <mxCell id="WIyWlLk6GJQsqaUBKTNV-1" parent="WIyWlLk6GJQsqaUBKTNV-0" />
        <mxCell id="bhveW77393bNuvriOFIt-1" value="Configuration Change" style="shape=umlFrame;whiteSpace=wrap;html=1;pointerEvents=0;recursiveResize=0;container=1;collapsible=0;width=160;" vertex="1" parent="WIyWlLk6GJQsqaUBKTNV-1">
          <mxGeometry x="180" y="150" width="860" height="580" as="geometry" />
        </mxCell>
        <mxCell id="FU20WlPGoaQ_MphzydKt-7" style="edgeStyle=orthogonalEdgeStyle;rounded=0;orthogonalLoop=1;jettySize=auto;html=1;entryX=0.5;entryY=0;entryDx=0;entryDy=0;endArrow=none;endFill=0;startArrow=diamondThin;startFill=1;targetPerimeterSpacing=0;startSize=20;" edge="1" parent="bhveW77393bNuvriOFIt-1" source="bhveW77393bNuvriOFIt-2" target="bhveW77393bNuvriOFIt-3">
          <mxGeometry relative="1" as="geometry" />
        </mxCell>
        <mxCell id="FU20WlPGoaQ_MphzydKt-8" value="Hosted On&lt;br style=&quot;font-size: 12px;&quot;&gt;" style="edgeLabel;html=1;align=center;verticalAlign=middle;resizable=0;points=[];fontSize=12;" connectable="0" vertex="1" parent="FU20WlPGoaQ_MphzydKt-7">
          <mxGeometry x="0.4037" relative="1" as="geometry">
            <mxPoint as="offset" />
          </mxGeometry>
        </mxCell>
        <mxCell id="bhveW77393bNuvriOFIt-2" value="&lt;p style=&quot;margin:0px;margin-top:4px;text-align:center;&quot;&gt;&lt;b&gt;IONOS&lt;/b&gt;&lt;/p&gt;&lt;hr size=&quot;1&quot;&gt;&lt;p style=&quot;margin:0px;margin-left:4px;&quot;&gt;+ server&lt;/p&gt;&lt;p style=&quot;margin:0px;margin-left:4px;&quot;&gt;+ user_interface&lt;/p&gt;&lt;hr size=&quot;1&quot;&gt;&lt;p style=&quot;margin:0px;margin-left:4px;&quot;&gt;+ hosts_config()&lt;/p&gt;&lt;p style=&quot;margin:0px;margin-left:4px;&quot;&gt;+ provides_editor()&lt;/p&gt;" style="verticalAlign=top;align=left;overflow=fill;fontSize=12;fontFamily=Helvetica;html=1;whiteSpace=wrap;" vertex="1" parent="bhveW77393bNuvriOFIt-1">
          <mxGeometry x="340" y="50" width="160" height="90" as="geometry" />
        </mxCell>
        <mxCell id="bhveW77393bNuvriOFIt-3" value="&lt;p style=&quot;margin:0px;margin-top:4px;text-align:center;&quot;&gt;&lt;b&gt;Configuration Files&lt;/b&gt;&lt;/p&gt;&lt;hr size=&quot;1&quot;&gt;&lt;p style=&quot;margin:0px;margin-left:4px;&quot;&gt;+ config: Config&lt;/p&gt;&lt;p style=&quot;margin:0px;margin-left:4px;&quot;&gt;&lt;br&gt;&lt;/p&gt;&lt;p style=&quot;margin:0px;margin-left:4px;&quot;&gt;&lt;br&gt;&lt;/p&gt;&lt;p style=&quot;margin:0px;margin-left:4px;&quot;&gt;&lt;br&gt;&lt;/p&gt;&lt;hr size=&quot;1&quot;&gt;&lt;p style=&quot;margin:0px;margin-left:4px;&quot;&gt;&lt;br&gt;&lt;/p&gt;" style="verticalAlign=top;align=left;overflow=fill;fontSize=12;fontFamily=Helvetica;html=1;whiteSpace=wrap;" vertex="1" parent="bhveW77393bNuvriOFIt-1">
          <mxGeometry x="520" y="190" width="192.5" height="90" as="geometry" />
        </mxCell>
        <mxCell id="FU20WlPGoaQ_MphzydKt-0" style="edgeStyle=orthogonalEdgeStyle;rounded=0;orthogonalLoop=1;jettySize=auto;html=1;endArrow=open;endFill=0;endSize=12;" edge="1" parent="bhveW77393bNuvriOFIt-1" source="bhveW77393bNuvriOFIt-4" target="bhveW77393bNuvriOFIt-3">
          <mxGeometry relative="1" as="geometry" />
        </mxCell>
        <mxCell id="FU20WlPGoaQ_MphzydKt-1" value="Changes" style="edgeLabel;html=1;align=center;verticalAlign=middle;resizable=0;points=[];fontSize=12;" connectable="0" vertex="1" parent="FU20WlPGoaQ_MphzydKt-0">
          <mxGeometry x="-0.0115" y="1" relative="1" as="geometry">
            <mxPoint as="offset" />
          </mxGeometry>
        </mxCell>
        <mxCell id="bhveW77393bNuvriOFIt-9" style="edgeStyle=orthogonalEdgeStyle;rounded=0;orthogonalLoop=1;jettySize=auto;html=1;entryX=0.5;entryY=1;entryDx=0;entryDy=0;endArrow=open;endFill=0;endSize=12;" edge="1" parent="bhveW77393bNuvriOFIt-1" source="bhveW77393bNuvriOFIt-5" target="bhveW77393bNuvriOFIt-4">
          <mxGeometry relative="1" as="geometry" />
        </mxCell>
        <mxCell id="bhveW77393bNuvriOFIt-10" value="Requests Change" style="edgeLabel;html=1;align=center;verticalAlign=middle;resizable=0;points=[];fontSize=12;" connectable="0" vertex="1" parent="bhveW77393bNuvriOFIt-9">
          <mxGeometry x="0.2421" y="-1" relative="1" as="geometry">
            <mxPoint x="50" as="offset" />
          </mxGeometry>
        </mxCell>
        <mxCell id="bhveW77393bNuvriOFIt-5" value="&lt;p style=&quot;margin:0px;margin-top:4px;text-align:center;&quot;&gt;&lt;b&gt;Data Analyst&lt;/b&gt;&lt;/p&gt;&lt;hr size=&quot;1&quot;&gt;&lt;p style=&quot;margin:0px;margin-left:4px;&quot;&gt;- request_change_config(): Config&lt;/p&gt;" style="verticalAlign=top;align=left;overflow=fill;fontSize=12;fontFamily=Helvetica;html=1;whiteSpace=wrap;" vertex="1" parent="bhveW77393bNuvriOFIt-1">
          <mxGeometry x="305" y="430" width="230" height="70" as="geometry" />
        </mxCell>
        <mxCell id="bhveW77393bNuvriOFIt-18" style="edgeStyle=orthogonalEdgeStyle;rounded=0;orthogonalLoop=1;jettySize=auto;html=1;exitX=0.5;exitY=0;exitDx=0;exitDy=0;entryX=0;entryY=0.5;entryDx=0;entryDy=0;endArrow=open;endFill=0;endSize=12;" edge="1" parent="bhveW77393bNuvriOFIt-1" source="bhveW77393bNuvriOFIt-4" target="bhveW77393bNuvriOFIt-2">
          <mxGeometry relative="1" as="geometry" />
        </mxCell>
        <mxCell id="bhveW77393bNuvriOFIt-19" value="Access&#39; Config" style="edgeLabel;html=1;align=center;verticalAlign=middle;resizable=0;points=[];fontSize=12;" connectable="0" vertex="1" parent="bhveW77393bNuvriOFIt-18">
          <mxGeometry x="-0.4092" y="-2" relative="1" as="geometry">
            <mxPoint x="1" as="offset" />
          </mxGeometry>
        </mxCell>
        <mxCell id="bhveW77393bNuvriOFIt-4" value="&lt;p style=&quot;margin:0px;margin-top:4px;text-align:center;&quot;&gt;&lt;b&gt;Data Administrator&lt;/b&gt;&lt;/p&gt;&lt;hr size=&quot;1&quot;&gt;- change_config(): Config" style="verticalAlign=top;align=left;overflow=fill;fontSize=12;fontFamily=Helvetica;html=1;whiteSpace=wrap;" vertex="1" parent="bhveW77393bNuvriOFIt-1">
          <mxGeometry x="121" y="195" width="225" height="80" as="geometry" />
        </mxCell>
        <mxCell id="bhveW77393bNuvriOFIt-15" style="edgeStyle=orthogonalEdgeStyle;rounded=0;orthogonalLoop=1;jettySize=auto;html=1;entryX=0;entryY=0.5;entryDx=0;entryDy=0;endArrow=open;endFill=0;endSize=7;" edge="1" parent="bhveW77393bNuvriOFIt-1">
          <mxGeometry relative="1" as="geometry" />
        </mxCell>
        <mxCell id="bhveW77393bNuvriOFIt-17" value="Text" style="edgeLabel;html=1;align=center;verticalAlign=middle;resizable=0;points=[];" connectable="0" vertex="1" parent="bhveW77393bNuvriOFIt-15">
          <mxGeometry x="-0.4286" y="-1" relative="1" as="geometry">
            <mxPoint x="1" as="offset" />
          </mxGeometry>
        </mxCell>
        <mxCell id="bhveW77393bNuvriOFIt-16" value="Text" style="edgeLabel;html=1;align=center;verticalAlign=middle;resizable=0;points=[];" connectable="0" vertex="1" parent="bhveW77393bNuvriOFIt-15">
          <mxGeometry x="-0.3705" y="-1" relative="1" as="geometry">
            <mxPoint x="1" as="offset" />
          </mxGeometry>
        </mxCell>
      </root>
    </mxGraphModel>
  </diagram>
</mxfile>
